<?xml version="1.0" encoding="UTF-8" standalone="no"?>
<!-- Created with Inkscape (http://www.inkscape.org/) -->

<svg
   version="1.1"
   id="svg2"
   xml:space="preserve"
   width="196.39999"
   height="282"
   viewBox="0 0 196.39999 282"
   sodipodi:docname="B_black.eps"
   xmlns:inkscape="http://www.inkscape.org/namespaces/inkscape"
   xmlns:sodipodi="http://sodipodi.sourceforge.net/DTD/sodipodi-0.dtd"
   xmlns="http://www.w3.org/2000/svg"
   xmlns:svg="http://www.w3.org/2000/svg"><defs
     id="defs6" /><sodipodi:namedview
     id="namedview4"
     pagecolor="#ffffff"
     bordercolor="#666666"
     borderopacity="1.0"
     inkscape:pageshadow="2"
     inkscape:pageopacity="0.0"
     inkscape:pagecheckerboard="0" /><g
     id="g8"
     inkscape:groupmode="layer"
     inkscape:label="ink_ext_XXXXXX"
     transform="matrix(1.3333333,0,0,-1.3333333,0,282)"><g
       id="g10"
       transform="scale(0.1)"><path
         d="M 728.992,0 C 844.973,0 948.984,16.4883 1041,49.5 c 91.97,33 169.97,78 234,135 63.98,56.988 112.97,123.469 146.99,199.488 34,75.992 51.01,157.973 51.01,246.012 0,66.012 -10.5,123.98 -31.51,173.988 -20.99,49.973 -49.02,94 -83.99,132.024 -35.01,37.949 -75,70.488 -120,97.498 -45,26.99 -90.52,49.49 -136.5,67.5 90,43.95 165,99.45 225,166.49 60,66.99 90,153.47 90,259.5 0,73.97 -14.02,146.48 -42.01,217.5 -28.02,70.97 -70.03,133.97 -125.99,189 -56.02,54.98 -126.52,99 -211.51,132 -85.025,33 -183.502,49.5 -295.494,49.5 H 234 C 169.973,2115 114.984,2094.47 69,2053.5 22.9688,2012.48 0,1960.97 0,1899 V 216.012 C 0,157.969 22.5,107.48 67.5,64.5 112.5,21.4609 167.996,0 234,0 h 494.992 z m 45,903.012 c 79.973,0 146.496,-23.032 199.504,-69.024 C 1026.46,787.969 1053,721.961 1053,636.012 1053,558.012 1028.49,495.988 979.492,450 930.469,403.961 855.984,381.012 755.996,381.012 h -336 v 522 H 773.992 Z M 419.996,1287.01 V 1737 h 366 c 77.996,0 132.473,-21.52 163.496,-64.5 30.996,-43.03 46.504,-93.52 46.504,-151.5 0,-40.03 -7.031,-74.99 -20.996,-104.99 -14.016,-30 -32.527,-54.53 -55.508,-73.51 -23.008,-19.03 -48,-32.99 -75,-42 -26.992,-9 -53.523,-13.49 -79.492,-13.49 H 419.996 v 0"
         style="fill:#231f20;fill-opacity:1;fill-rule:nonzero;stroke:none"
         id="path12" /></g></g></svg>
