<?xml version="1.0" encoding="UTF-8" standalone="no"?>
<!-- Created with Inkscape (http://www.inkscape.org/) -->

<svg
   version="1.1"
   id="svg2"
   xml:space="preserve"
   width="184.8"
   height="288.79999"
   viewBox="0 0 184.8 288.79999"
   sodipodi:docname="C_black.eps"
   xmlns:inkscape="http://www.inkscape.org/namespaces/inkscape"
   xmlns:sodipodi="http://sodipodi.sourceforge.net/DTD/sodipodi-0.dtd"
   xmlns="http://www.w3.org/2000/svg"
   xmlns:svg="http://www.w3.org/2000/svg"><defs
     id="defs6" /><sodipodi:namedview
     id="namedview4"
     pagecolor="#ffffff"
     bordercolor="#666666"
     borderopacity="1.0"
     inkscape:pageshadow="2"
     inkscape:pageopacity="0.0"
     inkscape:pagecheckerboard="0" /><g
     id="g8"
     inkscape:groupmode="layer"
     inkscape:label="ink_ext_XXXXXX"
     transform="matrix(1.3333333,0,0,-1.3333333,0,288.8)"><g
       id="g10"
       transform="scale(0.1)"><path
         d="m 420,1380 c 0,63.99 6,121.97 18.004,174 11.996,51.98 31.969,96 60,132 27.976,36 64.969,63.98 111,84 45.976,19.97 102.976,30 170.996,30 47.996,0 91.973,-6 132.004,-18 39.976,-12 78.98,-30 116.996,-54 l 30,-18 c 19.97,-12 37.97,-22.5 54,-31.5 15.98,-9 40.97,-13.5 75,-13.5 57.99,0 105.48,18 142.5,54 36.98,36 55.51,78 55.51,126 0,43.97 -17.53,85.5 -52.5,124.5 -35.02,39 -81.53,72.98 -139.51,102 -58.02,28.97 -124.03,51.98 -197.992,69 C 921.98,2157.47 844.973,2166 765,2166 c -131.996,0 -245.996,-18.52 -341.996,-55.5 -96,-37.03 -175.504,-90 -238.5,-159 C 121.5,1882.5 75,1799.48 45,1702.5 15,1605.47 0,1497.98 0,1380 V 786 C 0,667.969 15,560.488 45,463.5 c 30,-97.031 76.5,-180 139.504,-249 62.996,-69 142.5,-122.0195 238.5,-159 96,-36.9805 210,-55.5117188 341.996,-55.5117188 79.973,0 156.98,8.5429688 231.008,25.5117188 73.962,16.9609 139.972,39.9883 197.992,69 57.98,28.969 104.49,62.988 139.51,102 34.97,39 52.5,80.488 52.5,124.5 0,48 -18.53,90 -55.51,126 -37.02,36 -84.51,54 -142.5,54 -34.03,0 -59.02,-4.5 -75,-13.512 C 1096.97,478.5 1078.97,468 1059,456 l -30,-18 C 990.984,414 951.98,396 912.004,384 871.973,372 827.996,366 780,366 c -68.02,0 -125.02,9.988 -170.996,30 -46.031,19.969 -83.024,48 -111,83.988 C 469.973,516 450,559.961 438.004,612 426,663.988 420,721.969 420,786 v 594 0"
         style="fill:#231f20;fill-opacity:1;fill-rule:nonzero;stroke:none"
         id="path12" /></g></g></svg>
