<?xml version="1.0" encoding="UTF-8" standalone="no"?>
<!-- Created with Inkscape (http://www.inkscape.org/) -->

<svg
   version="1.1"
   id="svg2"
   xml:space="preserve"
   width="255.60001"
   height="289.20001"
   viewBox="0 0 255.60001 289.20001"
   sodipodi:docname="M_black.eps"
   xmlns:inkscape="http://www.inkscape.org/namespaces/inkscape"
   xmlns:sodipodi="http://sodipodi.sourceforge.net/DTD/sodipodi-0.dtd"
   xmlns="http://www.w3.org/2000/svg"
   xmlns:svg="http://www.w3.org/2000/svg"><defs
     id="defs6" /><sodipodi:namedview
     id="namedview4"
     pagecolor="#ffffff"
     bordercolor="#666666"
     borderopacity="1.0"
     inkscape:pageshadow="2"
     inkscape:pageopacity="0.0"
     inkscape:pagecheckerboard="0" /><g
     id="g8"
     inkscape:groupmode="layer"
     inkscape:label="ink_ext_XXXXXX"
     transform="matrix(1.3333333,0,0,-1.3333333,0,289.2)"><g
       id="g10"
       transform="scale(0.1)"><path
         d="m 1917,1971 c 0,54 -20.53,100.5 -61.49,139.5 -41.03,39 -92.54,58.5 -154.5,58.5 -42.01,0 -81.53,-8.01 -118.51,-24 -37.03,-16.03 -66.51,-46.03 -88.5,-90 L 960.004,993 426,2052 c -40.031,78 -110.016,117 -210,117 -62.016,0 -113.527,-18.52 -154.5,-55.5 C 20.4844,2076.47 0,2028.98 0,1971 V 189 C 0,136.969 19.5039,92.4883 58.5,55.4883 97.5,18.5195 145.969,0 204,0 261.98,0 312.473,18.5195 355.496,55.4883 398.484,92.4883 420,136.969 420,189 V 1221 L 762.004,549 c 19.969,-40.031 47.476,-69 82.5,-87 34.969,-18 72.469,-27 112.5,-27 42,0 80.476,9 115.496,27 34.97,18 62.48,46.969 82.5,87 l 342,672 V 189 c 0,-52.031 21.01,-96.5117 63,-133.5117 C 1602,18.5195 1651.97,0 1710,0 c 55.98,0 104.48,18.5195 145.51,55.4883 40.96,37 61.49,81.4807 61.49,133.5117 v 1782 0"
         style="fill:#231f20;fill-opacity:1;fill-rule:nonzero;stroke:none"
         id="path12" /></g></g></svg>
