<?xml version="1.0" encoding="UTF-8" standalone="no"?>
<!-- Created with Inkscape (http://www.inkscape.org/) -->

<svg
   version="1.1"
   id="svg2"
   xml:space="preserve"
   width="185.2"
   height="289.20001"
   viewBox="0 0 185.2 289.20001"
   sodipodi:docname="S_black.eps"
   xmlns:inkscape="http://www.inkscape.org/namespaces/inkscape"
   xmlns:sodipodi="http://sodipodi.sourceforge.net/DTD/sodipodi-0.dtd"
   xmlns="http://www.w3.org/2000/svg"
   xmlns:svg="http://www.w3.org/2000/svg"><defs
     id="defs6" /><sodipodi:namedview
     id="namedview4"
     pagecolor="#ffffff"
     bordercolor="#666666"
     borderopacity="1.0"
     inkscape:pageshadow="2"
     inkscape:pageopacity="0.0"
     inkscape:pagecheckerboard="0" /><g
     id="g8"
     inkscape:groupmode="layer"
     inkscape:label="ink_ext_XXXXXX"
     transform="matrix(1.3333333,0,0,-1.3333333,0,289.2)"><g
       id="g10"
       transform="scale(0.1)"><path
         d="M 879.004,447 C 826.973,402.98 748.977,381 645,381 c -64.027,0 -120.52,6.98 -169.504,21 -49.027,13.969 -91.496,27 -127.5,39 -28.023,9.988 -54.512,18.469 -79.496,25.5 C 243.469,473.488 219.984,477 197.996,477 141.98,477 94.9727,457.5 57.0039,418.5 18.9844,379.5 0,336 0,287.988 0,235.969 22.9688,191.488 69,154.5 114.984,117.469 171,87.4688 237.004,64.5 302.996,41.4883 372.984,25.0313 447.004,15 520.973,5.01953 585.98,0 642.004,0 750,0 849.473,14.5313 940.496,43.5 1031.48,72.4688 1110,114.988 1176,171 c 66,55.969 117.98,124.969 156,206.988 37.97,82 57,174.992 57,279.012 0,105.98 -18.52,193.969 -55.5,264 -37.03,69.988 -84.52,127.5 -142.5,172.5 -58.03,45 -123.52,81 -196.496,108 -73.027,27 -146.535,52.5 -220.5,76.5 -34.031,9.99 -68.535,21 -103.508,33 -35.016,12 -72.516,27.99 -112.5,48 -26.016,12 -53.527,31.97 -82.5,60 -29.012,27.99 -43.492,75 -43.492,141 0,43.97 7.969,80.48 23.996,109.5 15.98,28.97 36.98,52.5 63,70.5 25.973,18 56.48,30.47 91.496,37.5 34.973,6.98 70.504,10.5 106.508,10.5 51.98,0 95.992,-5.02 132,-15 35.996,-10.03 67.969,-20.02 95.996,-30 25.969,-8.02 49.973,-15.52 72,-22.5 21.98,-7.03 46.97,-10.5 75,-10.5 66,0 117.47,18.98 154.5,57 36.98,37.97 55.5,81.98 55.5,132 0,55.97 -23.02,101.48 -69,136.5 -46.03,34.97 -101.53,62.48 -166.5,82.5 -65.02,19.97 -131.527,33.47 -199.496,40.5 C 798.984,2165.48 742.969,2169 699,2169 592.969,2169 496.969,2154.99 411,2127 324.984,2098.97 252.004,2058 192.004,2004 132.004,1950 85.4961,1884.47 52.5,1807.5 19.5039,1730.48 3,1644 3,1548 c 0,-108 18,-197.53 54.0039,-268.5 35.9922,-71.01 82.9691,-129 140.9921,-174 57.988,-45.01 123.473,-81 196.508,-108 C 467.48,970.488 540.98,945.988 615,924 c 39.98,-14.012 78.473,-27.512 115.496,-40.5 36.984,-13.039 71.484,-26.531 103.508,-40.512 27.976,-11.988 55.5,-32 82.5,-60 26.992,-28.019 40.5,-76.019 40.5,-143.988 0,-84 -26.027,-148.031 -78,-192 v 0"
         style="fill:#231f20;fill-opacity:1;fill-rule:nonzero;stroke:none"
         id="path12" /></g></g></svg>
